<svg width="512" height="512" viewBox="0 0 512 512" xmlns="http://www.w3.org/2000/svg">
  <defs>
    <linearGradient id="g1" x1="0%" y1="0%" x2="100%" y2="100%">
      <stop offset="0%" stop-color="#4C83FF"/>
      <stop offset="100%" stop-color="#2932E1"/>
    </linearGradient>
    <linearGradient id="g2" x1="100%" y1="100%" x2="0%" y2="0%">
      <stop offset="0%" stop-color="#00D28F"/>
      <stop offset="100%" stop-color="#00E6B4"/>
    </linearGradient>
  </defs>
  <rect width="512" height="512" rx="120" fill="#ffffff" />
  <g opacity="0.9">
    <path d="M140 280 C140 200, 220 160, 280 200 C350 240, 350 320, 280 360 C220 400, 140 360, 140 280 Z" fill="url(#g1)"/>
    <path d="M372 232 C372 312, 292 352, 232 312 C162 272, 162 192, 232 152 C292 112, 372 152, 372 232 Z" fill="url(#g2)"/>
  </g>
  <circle cx="256" cy="256" r="32" fill="#ffffff"/>
  <path d="M256 236 L262 250 L276 256 L262 262 L256 276 L250 262 L236 256 L250 250 Z" fill="#2932E1"/>
</svg>
